<svg height="24.05" viewBox="0 0 100.79 24.05" width="100.79" xmlns="http://www.w3.org/2000/svg"><g fill="#fff"><path d="m16.78 4.36a11.52 11.52 0 0 1 -1.35 5.42l-5.84 10.86-5.84-10.86a11.4 11.4 0 0 1 -1.35-5.42v-4.36h-2.4v4.36a13.9 13.9 0 0 0 1.64 6.56l6.89 12.82h2.12l6.89-12.82a13.9 13.9 0 0 0 1.64-6.56v-4.36h-2.4z"/><path d="m96.83 6.48a11.12 11.12 0 0 0 -3.2.26c-4.26 1.11-4.26 5.36-4.26 6.75v10.25h2.4v-10.25c0-2.69.71-4 2.47-4.43a9.12 9.12 0 0 1 2.55-.18h.77v-2.39h-.73"/><path d="m64.19 21.15c-1.75-.46-2.46-1.74-2.46-4.43v-7.72h5.34v-2.41h-5.35v-3.16h-2.39v13.29c0 1.39 0 5.64 4.26 6.75a9.24 9.24 0 0 0 2.46.27h1.46v-2.4h-.77a9.12 9.12 0 0 1 -2.55-.19"/><path d="m83.55 17.24a5.94 5.94 0 0 1 -.75 3 3.67 3.67 0 0 1 -2.8 1.29 21.28 21.28 0 0 1 -3.91 0 3.69 3.69 0 0 1 -2.83-1.33 5.72 5.72 0 0 1 -.75-3 26.39 26.39 0 0 1 0-4.17 5.72 5.72 0 0 1 .75-3 3.74 3.74 0 0 1 2.83-1.34 23.21 23.21 0 0 1 3.91 0 3.74 3.74 0 0 1 2.83 1.31 5.94 5.94 0 0 1 .75 3 29 29 0 0 1 0 4.17m2.18-6.06a5.58 5.58 0 0 0 -5-4.75 31.11 31.11 0 0 0 -5.46 0 5.59 5.59 0 0 0 -5 4.75 28.21 28.21 0 0 0 0 8 5.59 5.59 0 0 0 5 4.75 31.11 31.11 0 0 0 5.46 0 5.58 5.58 0 0 0 5-4.75 27.86 27.86 0 0 0 0-8"/><path d="m53.28 19a3.29 3.29 0 0 1 -.53 1.23 3.66 3.66 0 0 1 -2.82 1.33 21.39 21.39 0 0 1 -3.92 0 3.66 3.66 0 0 1 -2.82-1.33 5.72 5.72 0 0 1 -.75-3 26.39 26.39 0 0 1 0-4.17 5.72 5.72 0 0 1 .75-3 3.7 3.7 0 0 1 2.81-1.29 23.32 23.32 0 0 1 3.92 0 3.72 3.72 0 0 1 2.82 1.34 3.63 3.63 0 0 1 .53 1.21h2.43v-.14a5.59 5.59 0 0 0 -5-4.75 31.11 31.11 0 0 0 -5.46 0 5.59 5.59 0 0 0 -5 4.75 28.21 28.21 0 0 0 0 8 5.59 5.59 0 0 0 5 4.75 31.11 31.11 0 0 0 5.46 0 5.59 5.59 0 0 0 5-4.75v-.18z"/><path d="m24 10.11a3.72 3.72 0 0 1 2.82-1.34 22.5 22.5 0 0 1 3.85 0 3.74 3.74 0 0 1 2.83 1.34 6 6 0 0 1 .78 3v.52h-11.06a4.51 4.51 0 0 1 0-.52 5.86 5.86 0 0 1 .79-3m12.7 5.89a28.8 28.8 0 0 0 -.26-4.82 5.61 5.61 0 0 0 -5-4.75 30.32 30.32 0 0 0 -5.39 0 5.59 5.59 0 0 0 -5 4.75 28.21 28.21 0 0 0 0 8 5.59 5.59 0 0 0 5 4.75 31.11 31.11 0 0 0 5.46 0 5.59 5.59 0 0 0 5-4.75v-.18h-2.42a3.29 3.29 0 0 1 -.53 1.23 3.66 3.66 0 0 1 -2.82 1.33 21.39 21.39 0 0 1 -3.92 0 3.68 3.68 0 0 1 -2.83-1.36 5.72 5.72 0 0 1 -.75-3c0-.41-.06-.82-.07-1.24z"/><path d="m97.82 3.52v.16h.54v1.46h.16v-1.46h.54v-.16zm2.88 0-.63.92-.63-.92h-.1v1.62h.16v-1.28l.54.8h.06l.54-.8v1.28h.15v-1.62z"/></g></svg>